<svg version="1.2" xmlns="http://www.w3.org/2000/svg" viewBox="0 0 570 474" width="570" height="474"><defs><linearGradient id="P" gradientUnits="userSpaceOnUse"/><linearGradient id="g1" x1="200.1" y1="327.4" x2="712.1" y2="480.8" href="#P"><stop offset=".2" stop-color="#10d6f9"/><stop offset=".4" stop-color="#10d6f9"/><stop offset=".8" stop-color="#1d7bb6"/><stop offset="1" stop-color="#0d3375"/></linearGradient><linearGradient id="g2" x1="207.4" y1="303" x2="719.4" y2="456.3" href="#P"><stop offset=".2" stop-color="#10d6f9"/><stop offset=".4" stop-color="#10d6f9"/><stop offset=".8" stop-color="#1d7bb6"/><stop offset="1" stop-color="#0d3375"/></linearGradient><linearGradient id="g3" x1="206.4" y1="306.2" x2="718.4" y2="459.5" href="#P"><stop offset=".2" stop-color="#10d6f9"/><stop offset=".4" stop-color="#10d6f9"/><stop offset=".8" stop-color="#1d7bb6"/><stop offset="1" stop-color="#0d3375"/></linearGradient><linearGradient id="g4" x1="212.3" y1="286.5" x2="724.3" y2="439.8" href="#P"><stop offset=".2" stop-color="#10d6f9"/><stop offset=".4" stop-color="#10d6f9"/><stop offset=".8" stop-color="#1d7bb6"/><stop offset="1" stop-color="#0d3375"/></linearGradient><linearGradient id="g5" x1="218.2" y1="266.7" x2="730.2" y2="420" href="#P"><stop offset=".2" stop-color="#10d6f9"/><stop offset=".4" stop-color="#10d6f9"/><stop offset=".8" stop-color="#1d7bb6"/><stop offset="1" stop-color="#0d3375"/></linearGradient><radialGradient id="g6" cx="340.1" cy="151.6" r="258.9" href="#P"><stop stop-color="#8d8d8d"/><stop offset="1" stop-color="#f2f2f2"/></radialGradient><linearGradient id="g7" x1="61.3" y1="-69.4" x2="491.4" y2="71" href="#P"><stop offset=".2" stop-color="#10d6f9"/><stop offset=".4" stop-color="#10d6f9"/><stop offset=".8" stop-color="#1d7bb6"/><stop offset="1" stop-color="#0d3375"/></linearGradient></defs><style>.a{fill:#c6c6c6}.b{fill:url(#g1)}.c{fill:url(#g2)}.d{fill:url(#g3)}.e{fill:url(#g4)}.f{fill:url(#g5)}.g{fill:url(#g6)}.h{fill:url(#g7)}</style><path fill-rule="evenodd" class="a" d="m26.7 358.4v21.9q3.1-5.2 8.8-8.5 4.9-2.7 12-2.7 12.9 0 21.1 10.6 8.2 10.7 8.2 27.6 0 17-8.2 27.6-4.1 5.2-11.1 7.6-7 2.3-13.8 2.3-13.1 0-24.3-6.9-11.2-6.8-11.2-26.2v-62.6h9.3q3.8 0 6.5 2.7 2.7 2.8 2.7 6.6zm31.2 48.1q0-9.8-4.1-15.3-4.1-5.7-11.2-5.7-7.6 0-11.7 5.4-4.2 5.8-4.2 15.6 0 11.5 3.9 16.7 4.1 5.7 11.5 5.7 7.6 0 11.7-5.7 4.1-5.8 4.1-16.7z"/><path class="a" d="m84.5 349.4h9.8q3.9 0 6.6 2.7 2.7 2.7 2.7 6.6v5.7h-19.1zm0 21.3h9.8q3.9 0 6.6 2.8 2.7 2.7 2.7 6.5v63.4h-19.1z"/><path class="a" d="m113.3 443.4v-35.3q0-10.6 3.1-17.9 3.1-7.2 8.6-11.6 5.2-4.1 12.2-6 6.9-1.9 14.3-1.9 0.6 0 1.4 0 0.8 0 1.4 0v19.4h-6.3q-8 0-11.8 3.8-3.8 3.9-3.8 12.1v37.4z"/><path fill-rule="evenodd" class="a" d="m207.1 349.1h9.3q3.8 0 6.5 2.9 2.8 2.8 2.8 6.4v53.3q0 19.4-11.2 26.2-11.2 6.9-24.4 6.9-7.1 0-13.9-2.3-6.8-2.4-10.9-7.6-8-10.1-8-27.6 0-17.2 8-27.6 8.2-10.6 21-10.6 6.8 0 12 2.7 5.5 3.3 8.8 8.5zm-31.2 57.4q0 10.9 4.1 16.6 4.1 5.8 11.8 5.8 7.4 0 11.5-5.8 3.8-5.7 3.8-16.6 0-9.9-4.1-15.6-4.4-5.5-11.8-5.5-7.1 0-11.2 5.8-4.1 5.4-4.1 15.3z"/><path class="b" d="m310.6 443.4h-19.1l-11.2-51.9-11.2 51.9h-19.1l-20-72.7h18.6l11.5 50.3 10.4-50.3h19.4l9.8 50.3 10.1-43.7q1.7-6.6 8.8-6.6h12z"/><path class="c" d="m336 349.4h9.8q3.8 0 6.6 2.7 2.7 2.7 2.7 6.6v5.7h-19.1zm0 21.3h9.8q3.8 0 6.6 2.8 2.7 2.7 2.7 6.5v63.4h-19.1z"/><path class="d" d="m426.1 443.4h-9.5q-4.1 0-6.7-2.6-2.6-2.6-2.6-6.7v-37.2q0-6.5-4-9.5-3.9-3-8.9-3-4.9 0-8.7 3-3.8 3-3.8 9.5v46.5h-19.2v-42.6q0-18.6 9.7-24.9 9.7-6.3 21.5-6.8 12 0 22.1 6.2 10.1 6.3 10.1 25.5z"/><path fill-rule="evenodd" class="e" d="m482.1 439v-4.6q-5 7.6-13.3 9.6-8.3 1.9-16.5-1.4-8.2-3.3-14.1-12.2-5.9-8.9-5.9-23.3 0-17 7.8-27.5 7.8-10.5 25-10.5 13.1 0 24.4 7.1 11.2 7.1 11.2 26.2v38.6q0 19.1-11.2 26.1-11.3 6.9-24.4 6.9-25.1 0-31.1-23.5h19.9q2.2 3.8 6.7 5.9 4.5 2 9 1.1 4.5-1 8.2-5.3 3.7-4.4 4.3-13.2zm-31.2-31.4q0 18.9 10.9 20.9 11 2.1 16.2-5 2.4-3 3.5-9.5 1.1-6.4 0.2-12.7-1-6.3-4.5-11.2-3.6-4.9-10.4-4.9-9.3 0-12.6 6.8-3.3 6.9-3.3 15.6z"/><path class="f" d="m505.1 419.4h18.6q0.3 5.4 4.1 8.2 4.1 2.7 10.9 2.7 4.9 0 8.5-1.9 3.3-1.9 3.3-5.2 0-4.9-11.5-7.4-4.9-0.8-7.4-1.6-14.5-3.6-19.4-8.5-5.5-4.9-5.5-13.1 0-10.4 8-17.3 8.2-6.2 21.3-6.2 14.2 0 22.7 6.2 7.9 6.9 8.5 17.8h-11.8q-5.2 0-7.9-4.6-1.1-1.1-2.2-2.2-3.3-2.5-9-2.5-5.5 0-8.2 1.7-2.5 1.6-2.5 4.9 0 4.4 14.2 7.4 1.7 0.5 2.9 0.8 1.2 0.3 2.3 0.3 14 3.5 19.4 8.2 5.2 4.9 5.2 13.1 0 12-8.7 18.6-8.2 6-24.6 6-15.6 0-23.3-6.3-7.9-6.3-7.9-18.3z"/><path class="g" d="m388.8 220.6c-63.5 103.9-242.6 84.7-275.3 84.9 118.4-31.9 126.3-129.6 153.9-193.2 50.4-116.1 167.5-135.2 234.2-88.7-108.5 5-68.5 124.7-112.8 197z"/><path class="h" d="m0.1 134.8c107.7-154 326.3-167.4 385.6-29.9 55.9 129.7-54.8 231-272.2 200.6 92.6-4.6 186.8-51.3 156.3-141.5-26.2-77.6-141.2-101.6-269.7-29.2z"/></svg>