<svg version="1.2" xmlns="http://www.w3.org/2000/svg" viewBox="0 0 408 387" width="408" height="387"><defs><linearGradient id="P" gradientUnits="userSpaceOnUse"/><linearGradient id="g1" x1="208.3" y1="232.3" x2="208.3" y2="26.3" href="#P"><stop stop-color="#ffe600"/><stop offset="1" stop-color="#eb5223"/></linearGradient><linearGradient id="g2" x1="341.4" y1="169.9" x2="341.4" y2="292.6" href="#P"><stop stop-color="#ff7c36"/><stop offset="1" stop-color="#fff52e"/></linearGradient><linearGradient id="g3" x1="264.9" y1="167.4" x2="284.1" y2="167.4" href="#P"><stop stop-color="#dba97b"/><stop offset="1" stop-color="#fff"/></linearGradient><linearGradient id="g4" x1="396.1" y1="36.7" x2="396.1" y2="301.9" href="#P"><stop stop-color="#fff636"/><stop offset="1" stop-color="#ffab36"/></linearGradient><radialGradient id="g5" cx="205.1" cy="-142.7" r="319.6" href="#P"><stop offset=".9" stop-color="#db791d"/><stop offset="1" stop-color="#fff"/></radialGradient><linearGradient id="g6" x1="177.2" y1="92.8" x2="177.2" y2="42" href="#P"><stop stop-color="#ffab36"/><stop offset="1" stop-color="#fff636"/></linearGradient><linearGradient id="g7" x1="201.8" y1="232.3" x2="201.8" y2="26.3" href="#P"><stop stop-color="#ffe600"/><stop offset="1" stop-color="#eb5223"/></linearGradient><linearGradient id="g8" x1="11.7" y1="36.7" x2="11.7" y2="301.9" href="#P"><stop stop-color="#fff636"/><stop offset="1" stop-color="#ffab36"/></linearGradient><linearGradient id="g9" x1="199.4" y1="206" x2="202.8" y2="233.9" href="#P"><stop stop-color="#e39349"/><stop offset="1" stop-color="#fff"/></linearGradient><linearGradient id="g10" x1="66.4" y1="169.9" x2="66.4" y2="292.6" href="#P"><stop stop-color="#ff7c36"/><stop offset="1" stop-color="#fff52e"/></linearGradient></defs><style>.a{fill:#f5f5f5}.b{fill:url(#g1)}.c{fill:url(#g2)}.d{mix-blend-mode:multiply;fill:url(#g3)}.e{fill:url(#g4)}.f{mix-blend-mode:multiply;fill:url(#g5)}.g{fill:url(#g6)}.h{fill:url(#g7)}.i{fill:url(#g8)}.j{mix-blend-mode:multiply;fill:url(#g9)}.k{fill:url(#g10)}</style><path fill-rule="evenodd" class="a" d="m61.5 310.9v14.8q1.9-3.5 5.6-5.7 3.2-1.8 7.8-1.8 8.4 0 13.7 7.2 5.3 7.2 5.3 18.7 0 11.4-5.3 18.6-2.7 3.6-7.2 5.1-4.5 1.6-8.9 1.6-8.6 0-15.8-4.6-7.3-4.6-7.3-17.8v-42.4h6q2.5 0.1 4.3 1.9 1.8 1.9 1.8 4.4zm20.2 32.6q0-6.7-2.7-10.4-2.6-3.8-7.3-3.8-4.9 0-7.6 3.7-2.6 3.8-2.6 10.5 0 7.8 2.4 11.3 2.7 3.9 7.5 3.9 4.9 0 7.6-3.9 2.7-3.9 2.7-11.3z"/><path class="a" d="m139.9 319.3v28.8q0 13.2-6.6 17.2-6.5 4.1-14.3 4.1-7.7-0.4-14-4.4-6.2-4.1-6.2-16.9v-28.8h12.4v31.4q0 4.5 2.4 6.5 2.5 2 5.7 2 3.2 0 5.8-2 2.5-2 2.5-6.5v-25.1q0-2.6 1.7-4.5 1.7-1.8 4.4-1.8z"/><path class="a" d="m165.5 368.5q-5.9 0.3-12.7-0.2-6.8-0.6-6.8-9.1v-54.4h6.4q2.3 0 4 1.9 1.8 1.8 1.8 4.4v8.3h7.3v2.6q0 2.8-1.8 4.6-1.8 1.7-4.3 1.7h-1.2v27.4q0 3.2 3.5 3.2h3.8z"/><path class="a" d="m190.2 368.5q-5.9 0.3-12.7-0.2-6.8-0.6-6.8-9.1v-54.4h6.4q2.3 0 4 1.9 1.8 1.8 1.8 4.4v8.3h7.3v2.6q0 2.8-1.8 4.6-1.8 1.7-4.3 1.7h-1.2v27.4q0 3.2 3.6 3.2h3.7z"/><path fill-rule="evenodd" class="a" d="m226.8 353.3h8.8q-1.9 7.8-7.4 11.8-5.5 4.3-13.9 4.3-10.1 0-15.7-6.8-5.7-6.7-5.7-19.1 0-11.8 5.5-18.5 5.7-6.8 15.8-6.8 10.6 0 16.5 6.6 5.6 6.9 5.6 19.1 0 0.7 0 1.3 0 0.5 0 0.7 0 0.9-0.1 1.3h-30.7q0.2 5.7 2.6 8.5 2.3 3 7 3 3 0 5.1-1.3 0.5-0.2 1-0.7 0.4-0.4 1-1 0.1-0.5 1.3-1.5 1.1-0.9 3.3-0.9zm-21.3-14.4h18.1q-0.4-5-2.5-7.4-2.3-2.6-6.6-2.6-3.9 0-6.4 2.6-2.4 2.6-2.6 7.4z"/><path class="a" d="m241 368.5v-23.9q0-7.2 2-12.1 2.1-4.9 5.6-7.9 3.4-2.7 7.9-4 4.5-1.3 9.3-1.3 0.4 0 0.9 0 0.5 0 0.9 0v13.1h-4.1q-5.1 0-7.6 2.6-2.5 2.6-2.5 8.1v25.4z"/><path class="a" d="m271.6 368.5v-50.7q0-6.7 3.3-10 3.2-3.2 10.5-3.2 1.8 0 2.8 0.2 2 0 3 0.2v10.2h-3.2q-2.4 0-3.5 0.7-0.9 0.8-0.9 3v3.3h7.6v2.8q0 2.8-1.7 4.5-1.8 1.8-4.1 1.8h-1.8v37.2z"/><path class="a" d="m295.4 304.8h6.4q2.4 0 4.2 1.8 1.8 1.8 1.8 4.3v57.6h-12.4z"/><path class="a" d="m319.4 385.9v-10.2h3.3q3.6 0 5.6-1.8 2.1-1.7 0.8-5.6l-16.5-49h13.7l9.6 34.7 8.3-30.3q1.1-4.4 5.7-4.4h8.5l-18.1 56q-2.1 6.1-5.3 8.7-3.2 2.2-10.5 2.2-0.5 0-1.2 0-0.7 0-1.3 0-0.5-0.1-1.3-0.2-0.8-0.1-1.3-0.1z"/><path class="b" d="m14 12.9c21.2-11.2 41.5-6.1 59.3 9.1-21.7-6.3-25.7 23.7-4.2 49.1 19.4 22.9 54.3 56.3 134.8 56.3l2.4 12.8-2.4 12.1c-161 0-236.3-111.1-189.9-139.4z"/><path class="c" d="m310.8 300.8c-11.4-0.2-22.7-9.5-30.8-27 9.3 9.2 25.5 9.4 25.8-10.8 0.4-29.9-47.1-56.3-101.9-56.3l-2.4-21.1 2.4-21.7c139.2 0 164.1 136.9 106.9 136.9z"/><path class="d" d="m289.3 186.5c-1.3 14.8-0.7 32.3-0.1 46.4-10.2-8.5-24.4-15.6-41-20.3-0.3-13.7 1.1-29.8 2.9-42.8 14.6 4 27.3 9.8 38.2 16.7z"/><path class="e" d="m393.7 12.9c-64.4-34-120.6 82.4-125.6 177.5-3.7 70.7 19 110.1 42.7 110.4-29.3 0-99.2-13.4-99.2-113.2 0-131.3 108.3-221.7 182.1-174.7z"/><path class="f" d="m217.8 134.4l61.6-11.9c-4.7 17.1-8.1 34.7-10 52-24.1 3.8-41.4 5.2-57.7 6.3 0.5-16.2 2.6-31.7 6.1-46.4z"/><path class="g" d="m203.9 92.8c-13.5 0-24.3-11.4-24.3-25.4 0-14 10.8-25.4 24.3-25.4 13.4 0 24.3 11.4 24.3 25.4 0 14-10.9 25.4-24.3 25.4z"/><path class="h" d="m203.9 152.3v-24.9c80.4 0 115.4-33.4 134.8-56.3 21.5-25.4 17.5-55.4-4.2-49.1 17.8-15.2 38.1-20.3 59.2-9.1 46.5 28.3-28.9 139.4-189.8 139.4z"/><path class="i" d="m196.2 187.6c0 99.8-69.9 113.2-99.3 113.2 23.8-0.3 46.5-39.7 42.8-110.4-5-95.1-61.2-211.5-125.7-177.5 73.9-47 182.2 43.4 182.2 174.7z"/><path class="j" d="m140.1 207.1l55.9-10.6c-0.8 18.1-4 33.1-8.9 45.5-15.3-0.3-32 1-50.9 5.1 2.4-11.6 3.8-24.9 3.9-40z"/><path class="k" d="m203.9 163.9v42.8c-54.8 0-102.3 26.4-101.9 56.3 0.3 20.2 16.5 20 25.8 10.8-8.2 17.5-19.4 26.8-30.9 27-57.1 0-32.2-136.9 107-136.9z"/></svg>