<svg version="1.2" xmlns="http://www.w3.org/2000/svg" viewBox="0 0 981 541" width="981" height="541"><defs><linearGradient id="P" gradientUnits="userSpaceOnUse"/><linearGradient id="g1" x1="349.5" y1="119.1" x2="362.3" y2="191.1" href="#P"><stop stop-color="#85085b"/><stop offset="1" stop-color="#cf1111"/></linearGradient><linearGradient id="g2" x1="382.9" y1="323.6" x2="188.9" y2="379.9" href="#P"><stop stop-color="#ffc800"/><stop offset="1" stop-color="#fc0e0e"/></linearGradient><linearGradient id="g3" x1="55.1" y1="-11.2" x2="181.7" y2="84.4" href="#P"><stop offset=".2" stop-color="#ffc800"/><stop offset="1" stop-color="#fc0e0e"/></linearGradient><linearGradient id="g4" x1="440.3" y1="44.1" x2="480" y2="44.1" href="#P"><stop stop-color="#85085b"/><stop offset="1" stop-color="#cf1111"/></linearGradient><linearGradient id="g5" x1="184.2" y1="325.3" x2="308.9" y2="325.3" href="#P"><stop stop-color="#85085b"/><stop offset="1" stop-color="#cf1111"/></linearGradient><linearGradient id="g6" x1="282.1" y1="519.3" x2="268.9" y2="352.2" href="#P"><stop offset=".4" stop-color="#ffc800"/><stop offset="1" stop-color="#fc0e0e"/></linearGradient><linearGradient id="g7" x1="190.7" y1="543.2" x2="254.7" y2="325.5" href="#P"><stop offset=".2" stop-color="#ffc800"/><stop offset="1" stop-color="#fc0e0e"/></linearGradient><linearGradient id="g8" x1="131.4" y1="400.8" x2="219.8" y2="353.5" href="#P"><stop offset=".2" stop-color="#ffc800"/><stop offset="1" stop-color="#fc0e0e"/></linearGradient><linearGradient id="g9" x1="326.8" y1="-24.4" x2="530.7" y2="124.3" href="#P"><stop offset=".2" stop-color="#ffc800"/><stop offset="1" stop-color="#fc0e0e"/></linearGradient><linearGradient id="g10" x1="329.7" y1="312.7" x2="368.7" y2="312.7" href="#P"><stop stop-color="#85085b"/><stop offset="1" stop-color="#cf1111"/></linearGradient><radialGradient id="g11" cx="374.3" cy="47.4" r="14.7" href="#P"><stop stop-color="#cf1111"/><stop offset="1" stop-color="#85085b"/></radialGradient><radialGradient id="g12" cx="397.7" cy="29.6" r="10.5" href="#P"><stop stop-color="#cf1111"/><stop offset="1" stop-color="#85085b"/></radialGradient><radialGradient id="g13" cx="22" cy="95.6" r="16.8" href="#P"><stop stop-color="#cf1111"/><stop offset="1" stop-color="#85085b"/></radialGradient><radialGradient id="g14" cx="22" cy="6.2" r="16.8" href="#P"><stop stop-color="#cf1111"/><stop offset="1" stop-color="#85085b"/></radialGradient><radialGradient id="g15" cx="9.4" cy="49.5" r="21.4" href="#P"><stop stop-color="#cf1111"/><stop offset="1" stop-color="#85085b"/></radialGradient><radialGradient id="g16" cx="39.5" cy="127.7" r="11.6" href="#P"><stop stop-color="#cf1111"/><stop offset="1" stop-color="#85085b"/></radialGradient><radialGradient id="g17" cx="57.9" cy="150.1" r="10" href="#P"><stop stop-color="#cf1111"/><stop offset="1" stop-color="#85085b"/></radialGradient><radialGradient id="g18" cx="82.5" cy="166.3" r="10" href="#P"><stop stop-color="#cf1111"/><stop offset="1" stop-color="#85085b"/></radialGradient><radialGradient id="g19" cx="115.1" cy="173.2" r="10" href="#P"><stop stop-color="#cf1111"/><stop offset="1" stop-color="#85085b"/></radialGradient><radialGradient id="g20" cx="171.7" cy="482" r="21.4" href="#P"><stop stop-color="#cf1111"/><stop offset="1" stop-color="#85085b"/></radialGradient><radialGradient id="g21" cx="188.5" cy="447.5" r="14.7" href="#P"><stop stop-color="#cf1111"/><stop offset="1" stop-color="#85085b"/></radialGradient><radialGradient id="g22" cx="164.4" cy="525.1" r="14.7" href="#P"><stop stop-color="#cf1111"/><stop offset="1" stop-color="#85085b"/></radialGradient><radialGradient id="g23" cx="208.5" cy="421.4" r="12.6" href="#P"><stop stop-color="#cf1111"/><stop offset="1" stop-color="#85085b"/></radialGradient><radialGradient id="g24" cx="424.2" cy="22.9" r="10.3" href="#P"><stop stop-color="#cf1111"/><stop offset="1" stop-color="#85085b"/></radialGradient></defs><style>.a{fill:#535d60}.b{fill:#5e6a72}.c{fill:url(#g1)}.d{fill:url(#g2)}.e{fill:url(#g3)}.f{fill:url(#g4)}.g{fill:url(#g5)}.h{fill:url(#g6)}.i{fill:url(#g7)}.j{fill:url(#g8)}.k{fill:url(#g9)}.l{fill:url(#g10)}.m{fill:url(#g11)}.n{fill:url(#g12)}.o{fill:url(#g13)}.p{fill:url(#g14)}.q{fill:url(#g15)}.r{fill:url(#g16)}.s{fill:url(#g17)}.t{fill:url(#g18)}.u{fill:url(#g19)}.v{fill:url(#g20)}.w{fill:url(#g21)}.x{fill:url(#g22)}.y{fill:url(#g23)}.z{fill:url(#g24)}</style><path fill-rule="evenodd" class="a" d="m501.4 175.1c0.1-0.6 0.8-0.6 0.8-0.6 0 0 15.5-4.6 35.2-4 20.1 0.7 35.6 10.8 32.2 30.1-2.4 14.1-14.5 33.9-49.7 32.5l-1.2 6.3c-2.8 20.7 7.1 16.3 5.2 19.9-2.5 4.8-11.7 10.7-19.6 10.7-10.6 0-18.5-6.7-15.6-23zm27 9.6l-6.1 34.8c10.5 0 18.3-9.6 20.1-19.2 1.7-9.8-3.9-17.2-14-15.6z"/><path class="a" d="m637.5 260.3c-2.2 4-10.2 9.2-17.6 9.2-10.6 0-17.9-7.7-15.8-20 0.8-4.5 2.9-16.4 4.5-25.5 2.4-13.1-11.8-8.5-14.7 7-3.4 19.4-6.2 35.2-6.2 35.2-0.1 0.6-0.6 0.8-0.6 0.8h-25.3c0 0-0.5-0.2-0.4-0.7 0 0 13.4-79.1 15.9-93.3 0-0.5 0.6-0.5 0.6-0.5h25.8c0 0 0.6-0.1 0.4 0.5-1.7 9.6-4 23.3-6.9 39.7 7.6-10.8 17.6-14.7 24.4-14.7 9.7 0 16.6 8.5 14.2 21.7-0.9 5.5-1.8 10.6-3.6 20.5-3.6 20.8 7.1 16.4 5.3 20.1z"/><path fill-rule="evenodd" class="a" d="m670.6 270c-21.2 0-33.9-15.9-30.5-35.8 3.4-19.7 21.8-35.7 43-35.7 21.1 0 34 16 30.6 35.7-3.6 19.9-21.6 35.8-43.1 35.8zm2.5-14.9c7.9 0 12.6-9.3 14.7-20.9 2-11.2 0.4-20.8-7.2-20.8-7.8 0-12.6 9.6-14.6 20.8-2 11.1-0.5 20.9 7.1 20.9z"/><path fill-rule="evenodd" class="a" d="m780.9 248.7c-2.5 5.5-16.1 21-35.3 21-19.8 0-32.7-16-29.3-35.8 3.3-19.2 21.2-35.8 43.8-35.8 21.5 0 28.3 13.6 26.8 22.9-3.7 20.6-28.2 23.1-44.8 20.2 2.2 13.1 19.4 14.5 37 5.5 0.7-0.4 1.3-0.5 1.7-0.1 0.5 0.4 0.7 0.9 0.1 2.1zm-37.9-19c11.5 1 18.1-3.3 19.3-10.4 0.6-3.6-1.7-6.6-5.8-6.3 0 0-0.1 0.1-0.3 0.1q-0.2 0-0.4 0c-0.9 0.1-2.1 0.5-3.2 1.2-4.9 2.6-7.9 8.9-9.6 15.4z"/><path class="a" d="m861.6 260.3c-2.2 4-10.1 9.2-17.5 9.2-10.5 0-18-7.7-15.9-20 0.8-4.5 2.9-16.4 4.6-25.5 2.3-13.1-11.8-8.5-14.7 7-2.6 14.9-6.2 35.2-6.2 35.2-0.1 0.6-0.8 0.8-0.8 0.8h-26.2c0 0-0.5-0.2-0.4-0.7 0 0 6.3-30 7.9-39 3.6-20.9-6.2-16.4-4.2-20 2.1-4.2 9.9-9.3 17.3-9.3 9.2 0 15.4 5.8 15.4 15.4 7.7-11.3 17.8-15.4 24.8-15.4 9.9 0 16.7 8.5 14.3 21.7-0.9 5.5-2 10.6-3.7 20.5-3.6 20.8 7.3 16.4 5.3 20.1z"/><path class="a" d="m891.1 267h-26.1c0 0-0.5-0.2-0.5-0.7 0 0 6.3-30 7.9-39 3.6-20.9-6-16.4-4.4-20 2.3-4.2 10.3-9.3 17.6-9.3 10.7 0 17 7.6 14.7 20-1.8 10.2-8.5 48.2-8.5 48.2 0 0.6-0.7 0.8-0.7 0.8zm-2.8-72.6c-8.5 0-14.4-5.3-13.2-12.2 1.2-6.7 9.1-12.2 17.5-12.2 8.4 0 14.3 5.5 13.1 12.2-1.2 6.9-9 12.2-17.4 12.2z"/><path class="a" d="m972.3 266.2c0.2 0.4 0 0.8-0.5 0.8-6.8 0-21.8 0-29 0-0.6 0-1-0.4-1.1-0.7l-10.6-22.7c-11.8 3-1.3 15.7-1.6 16.9-0.7 4.4-7.9 9.3-15.2 9.3-10.5 0-16.1-6.3-14.9-15.3 1.6-11.6 9.9-18.8 26-22.4l-16-30.6c-0.1-0.4 0.3-0.6 0.5-0.6 7.4 0 21.4 0 28.5 0 0.4 0 0.8 0.2 1 0.6l10.7 22.4c11.1-3.1 0.7-15.1 0.8-16.1 0.7-4.3 7.9-9.2 15.2-9.2 10.6 0 16.3 7.3 14.8 16.2-1.9 10-13 17-25.4 19.6z"/><path class="b" d="m500.7 296.6l-5.2 23.7h-3.3l5.3-23.7h-4.6l0.6-2.7h4.5l0.8-3.9q0.7-2.9 2.2-4.6 1.6-1.7 4.9-1.7 0.9 0 1.7 0.1 0.8 0.1 1.6 0.3l-0.5 2.7q-0.5-0.1-1-0.2-0.5-0.1-1-0.1-2.3 0-3.3 0.9-0.9 0.9-1.4 2.8l-0.8 3.7h5.3l-0.6 2.7z"/><path class="b" d="m517.9 283.7l-7.9 36.6h-3.1l7.8-36.6z"/><path class="b" d="m520.2 327.3q1.5 0 2.5-0.9 1.1-1 1.7-2l2.4-4.1-4.9-26.4h3.4l3.8 22.4h0.1l12.2-22.4h3.4l-18.7 32.6q-2.1 3.5-6.4 3.5-0.7 0-1.4-0.1-0.7-0.1-1.4-0.2l0.6-2.6q1.4 0.2 2.7 0.2z"/><path class="b" d="m554.5 293.9l-5.7 26.4h-3.1l5.6-26.4zm2.2-10.2l-1.1 5.2h-3.3l1.2-5.2z"/><path class="b" d="m566.5 293.9l-0.9 4.8h0.1q1.5-2.4 4-4 2.5-1.6 5.4-1.6 1.8 0 3.2 0.4 1.5 0.4 2.6 1.3 1 0.8 1.6 2.2 0.6 1.3 0.6 3.2 0 1.1-0.4 3.1l-3.6 17h-3.3l3.7-17.1q0.2-0.6 0.3-1.3 0.1-0.7 0.1-1.3 0-1.3-0.5-2.2-0.4-0.9-1.2-1.5-0.8-0.6-1.8-0.8-1-0.3-2-0.3-1.8 0-3.4 0.8-1.7 0.8-3 2.2-1.4 1.4-2.4 3.4-1.1 2-1.6 4.5l-2.9 13.6h-3.2l5.7-26.4z"/><path fill-rule="evenodd" class="b" d="m609.4 323.5q-1 2.5-2.6 4.1-1.5 1.6-3.7 2.4-2.1 0.8-5.2 0.8-2.1 0-3.9-0.5-1.8-0.5-3.2-1.5-1.3-0.9-2.2-2.6-0.8-1.6-0.8-4h3.1q0 1.7 0.7 2.8 0.6 1.2 1.6 1.8 1.1 0.7 2.4 1 1.3 0.3 2.8 0.3 2 0 3.5-0.7 1.5-0.7 2.5-1.7 1.1-1.1 1.8-2.5 0.7-1.4 1.1-2.9 0.5-1.4 0.8-2.8 0.3-1.4 0.6-2.5l-0.1-0.1q-1.3 2.3-3.8 3.6-2.6 1.2-5.2 1.2-2.4 0-4.2-0.8-1.9-0.8-3.1-2.3-1.2-1.4-1.8-3.4-0.7-1.9-0.7-4.2 0-2.9 0.9-5.8 1-2.8 2.7-5.1 1.7-2.2 4.2-3.6 2.5-1.4 5.7-1.4 1.5 0 2.9 0.4 1.5 0.4 2.7 1.1 1.2 0.8 2 2 0.8 1.2 1.1 2.7h0.1l1.1-5.4h3l-5.1 23.6q-0.7 3.4-1.7 6zm-16-11.6q0.5 1.5 1.3 2.6 0.9 1.2 2.3 1.8 1.3 0.7 3.1 0.7 2.5 0 4.4-1.2 2-1.2 3.4-3.1 1.4-1.9 2.1-4.3 0.7-2.3 0.7-4.5 0-1.7-0.4-3.2-0.4-1.5-1.2-2.6-0.9-1-2.3-1.7-1.4-0.6-3.3-0.6-2.5 0-4.4 1.2-2 1.2-3.3 3-1.4 1.9-2.1 4.2-0.7 2.3-0.7 4.5 0 1.7 0.4 3.2z"/><path class="b" d="m645.1 293.9l-1 4.6 0.1 0.1q1.4-2.3 3.9-3.9 2.4-1.6 5.4-1.6 2.8 0 4.5 1.4 1.7 1.4 1.9 4.2h0.1q1.5-2.4 3.9-4 2.4-1.6 5.4-1.6 3.8 0 5.5 2 1.8 1.9 1.8 5 0 0.7-0.1 1.4-0.1 0.8-0.3 1.6l-3.7 17.2h-3.2l3.8-17.3q0.3-1.4 0.3-2.7 0-1.9-1.2-3.2-1.2-1.3-3.9-1.3-2.1 0-3.6 1-1.6 1-2.7 2.6-1.2 1.7-1.9 3.9-0.8 2.2-1.4 4.8l-2.6 12.2h-3.2l3.7-17.2q0.3-1.3 0.3-2.6 0-1.9-1.1-3.3-1-1.4-3.4-1.4-1.7 0-3.3 0.9-1.6 0.9-2.9 2.3-1.2 1.5-2.2 3.6-0.9 2-1.4 4.3l-2.9 13.4h-3.2l5.7-26.4z"/><path fill-rule="evenodd" class="b" d="m686.9 297.9q1-1.7 2.5-2.7 1.5-1.1 3.4-1.6 1.9-0.5 4-0.5 1.3 0 2.9 0.3 1.6 0.2 3 0.9 1.4 0.7 2.3 1.8 1 1.1 1 2.9 0 1-0.2 2.1-0.2 1.2-0.5 2.4-0.2 1.2-0.5 2.4-0.3 1.1-0.5 2-0.4 2.2-0.8 3.7-0.3 1.4-0.5 2.4-0.2 1-0.3 1.6-0.1 0.6-0.1 1.2 0 0.7 0.5 0.9 0.6 0.2 1.2 0.2 0.3 0 0.6 0 0.3-0.1 0.6-0.1l-0.4 2.5q-1.3 0.2-2.7 0.2-2.7 0-2.8-2.8 0-0.3 0-0.7 0.1-0.4 0.1-0.7l-0.1-0.1q-1.4 2.3-3.9 3.5-2.5 1.3-5.3 1.3-1.8 0-3.3-0.4-1.6-0.4-2.7-1.3-1.1-0.9-1.7-2.2-0.6-1.4-0.6-3.4 0-2.1 0.7-3.5 0.7-1.4 2-2.4 1.3-0.9 2.9-1.4 1.7-0.5 3.5-0.9 2.6-0.4 4.7-0.3 2.1 0 3.7-0.4 1.5-0.4 2.3-1.5 0.8-1.1 0.8-3.7 0-1.2-0.5-1.9-0.5-0.7-1.3-1.2-0.8-0.4-1.8-0.5-1-0.2-1.9-0.2-1.6 0-3 0.3-1.3 0.3-2.5 1-1.1 0.7-1.8 1.9-0.8 1.1-1 2.8h-3.3q0.3-2.3 1.3-3.9zm14.6 8.2q-0.4 0.4-1.2 0.7-0.7 0.3-1.5 0.4-0.8 0.2-1.7 0.2-0.8 0.1-1.4 0.1-1.5 0.1-3.3 0.3-1.8 0.2-3.4 0.8-1.6 0.6-2.7 1.7-1.1 1.2-1.1 3.3 0 1.3 0.5 2.2 0.5 0.8 1.3 1.4 0.8 0.6 1.9 0.9 1.1 0.2 2.2 0.2 3.9 0 6.3-2.1 2.4-2.1 3.2-5.6l1-4.4z"/><path fill-rule="evenodd" class="b" d="m732.5 323.5q-1 2.5-2.6 4.1-1.5 1.6-3.7 2.4-2.1 0.8-5.2 0.8-2.1 0-3.9-0.5-1.8-0.5-3.2-1.5-1.3-0.9-2.2-2.6-0.8-1.6-0.8-4h3.1q0 1.7 0.7 2.8 0.6 1.2 1.6 1.8 1.1 0.7 2.4 1 1.3 0.3 2.8 0.3 2 0 3.5-0.7 1.5-0.7 2.5-1.7 1.1-1.1 1.8-2.5 0.6-1.4 1.1-2.9 0.5-1.4 0.8-2.8 0.3-1.4 0.6-2.5l-0.1-0.1q-1.3 2.3-3.8 3.6-2.6 1.2-5.2 1.2-2.4 0-4.2-0.8-1.9-0.8-3.1-2.3-1.2-1.4-1.8-3.4-0.7-1.9-0.7-4.2 0-2.9 0.9-5.8 1-2.8 2.7-5.1 1.7-2.2 4.2-3.6 2.5-1.4 5.7-1.4 1.5 0 2.9 0.4 1.5 0.4 2.7 1.1 1.2 0.8 2 2 0.8 1.2 1.1 2.7h0.1l1.1-5.4h3l-5.1 23.6q-0.7 3.4-1.7 6zm-16-11.6q0.5 1.5 1.3 2.6 0.9 1.2 2.3 1.8 1.3 0.7 3.1 0.7 2.5 0 4.4-1.2 2-1.2 3.4-3.1 1.4-1.9 2.1-4.3 0.7-2.3 0.7-4.5 0-1.7-0.4-3.2-0.4-1.5-1.3-2.6-0.8-1-2.2-1.7-1.4-0.6-3.3-0.6-2.5 0-4.4 1.2-2 1.2-3.3 3-1.4 1.9-2.1 4.2-0.7 2.3-0.7 4.5 0 1.7 0.4 3.2z"/><path class="b" d="m751.4 293.9l-5.6 26.4h-3.2l5.6-26.4zm2.2-10.2l-1.1 5.2h-3.2l1.1-5.2z"/><path class="b" d="m776.7 299.5q-0.4-1.2-1.3-2-0.8-0.8-2-1.2-1.2-0.5-2.7-0.5-2.9 0-5 1.3-2.1 1.3-3.6 3.3-1.4 2.1-2.1 4.6-0.7 2.6-0.7 5.1 0 1.8 0.5 3.3 0.4 1.5 1.3 2.6 0.9 1.1 2.3 1.7 1.4 0.6 3.3 0.6 3.2 0 5.4-1.8 2.3-1.8 3.3-4.8h3.2q-1.5 4.6-4.5 7-3 2.3-7.8 2.3-4.9 0-7.6-3-2.6-2.9-2.6-7.9 0-3 1-6.1 0.9-3.1 2.8-5.5 1.8-2.4 4.5-3.9 2.6-1.5 6-1.5 2.2 0 4 0.5 1.9 0.6 3.2 1.7 1.3 1.1 2 2.8 0.7 1.7 0.7 4h-3.2q0.1-1.5-0.4-2.6z"/><path fill-rule="evenodd" class="b" d="m812.2 283.7l-3.1 14.8h0.1q1.4-2.4 3.7-3.9 2.3-1.5 5.4-1.5 2.6 0 4.4 0.9 1.9 0.8 3.2 2.3 1.2 1.4 1.8 3.4 0.6 2.1 0.6 4.4 0 3-0.9 6-0.9 3.1-2.7 5.5-1.7 2.4-4.3 3.9-2.7 1.5-6 1.5-3.4 0-5.8-1.7-2.4-1.8-3.1-5.1h-0.1l-1.3 6.1h-2.8l7.7-36.6zm6.6 33.3q2-1.3 3.5-3.4 1.4-2.1 2.1-4.6 0.7-2.6 0.7-5 0-3.7-1.8-5.9-1.8-2.3-5.8-2.3-2.6 0-4.7 1.5-2 1.4-3.3 3.5-1.4 2.2-2.1 4.7-0.7 2.6-0.7 4.8 0 1.7 0.5 3.1 0.4 1.5 1.3 2.6 0.9 1.1 2.2 1.7 1.4 0.6 3.2 0.6 2.8 0 4.9-1.3z"/><path class="b" d="m842.3 293.9l-5.7 26.4h-3.1l5.6-26.4zm2.2-10.2l-1.1 5.2h-3.3l1.2-5.2z"/><path class="b" d="m854.3 293.9l-1.4 6.1h0.1q1.6-2.9 3.8-4.7 2.3-1.8 5.8-1.8h0.9q0.2 0 0.4 0 0.3 0 0.5 0.1l-0.8 3.2q-0.4 0-0.9 0-0.4-0.1-0.9-0.1-2.2 0.1-3.8 0.9-1.7 0.8-2.9 2.2-1.2 1.3-2 3.1-0.8 1.7-1.2 3.6l-3 13.8h-3.2l5.7-26.4z"/><path fill-rule="evenodd" class="b" d="m883.5 320.3l1.2-4.8h-0.1q-1.7 2.6-3.9 4.1-2.2 1.4-5.7 1.4-5.1 0-7.5-2.9-2.5-3-2.5-7.8 0-3.1 1-6.1 1-3.1 2.9-5.6 1.9-2.4 4.5-4 2.7-1.5 6-1.5 3.1 0 5.4 1.3 2.3 1.3 3.2 4.4h0.1l3.2-15.1h3.2l-7.8 36.6zm-3.4-3.4q2.2-1.4 3.6-3.6 1.5-2.1 2.3-4.8 0.7-2.6 0.7-5.1 0-3.5-1.9-5.5-1.9-2.1-5.4-2.1-2.8 0-4.9 1.4-2.1 1.4-3.5 3.5-1.5 2.2-2.2 4.8-0.7 2.6-0.7 5 0 3.3 1.8 5.6 1.7 2.2 5.3 2.2 2.8 0 4.9-1.4z"/><path class="c" d="m287.9 145.4c38.2-6.4 63.9-3.4 71.2 23.7 7.1 26.3-25.3 50-97 44.8-60.2-4.3-109.7-42.1-111.2-46.3 54-3.8 112.9-18.2 137-22.2z"/><path class="d" d="m261.8 343.7c-58.9-1.6-66.4-46.4-48.2-61.3 18.8-15.3 29.3 0.3 86.4 1.6 50.3 1.2 74.8-35.3 74.8-35.3-23.8 80-77.2 95.9-113 95z"/><path class="e" d="m108.5 68.2c29.4 42 84.2 29.8 84.2 29.8 0 0-9.9 9.1-57 12.3-41.8 2.9-68-11-85-34.3-18.2-24.9-2.3-43.3 7-45.7 14.6-3.9 26.7 3.6 50.8 37.9z"/><path class="f" d="m437.5 89.4c0 0-9.3-27.5 5.6-38.4 12-8.6 32.4-1.8 36.9 6.3-18.8-2.3-37.1 19.5-42.5 32.1z"/><path class="g" d="m192.7 329.5c7.6 3.6 17.8 14.3 33.4 19.6 31.8 10.6 57.3 3.5 82.8-8.8-27.5 22.2-62.5 43.2-112.3 26.9-39.6-12.9-26.3-48.3-3.9-37.7z"/><path class="h" d="m311.7 405c5.4 15.1-9.5 31.4-24.4 23-15.3-8.6-17.2-32.2-0.1-56 9.3-13.1 32.5-28.3 32.5-28.3-15.8 18.1-17.1 35.8-8 61.3z"/><path class="i" d="m252.9 458.5c0 28.5-3.7 49.6-23.6 44.5-17.4-4.5-14.8-42.5-3-70.1 23.4-54.6 58.4-68.9 58.4-68.9-18.2 19.3-31.8 45.2-31.8 94.5z"/><path class="j" d="m223.5 386c13.1-1.9 33.5-12.8 28-6.5-5.4 6.1-42.1 41.6-74.6 26.4-19.6-9.1-6.4-31.4 5.8-23.8 14 8.8 21.8 6.8 40.8 3.9z"/><path class="k" d="m159.8 160c-67.3 9-107.5-40.8-113.2-65.3 0 0 19.3 35.2 103.1 24.7 83.7-10.4 199.2-75.5 256.5 24.1-7.4-24-38.9-78.5 29.1-96.2-4.4 6.5-7.6 13.5-7.4 20.2-2.3 11.5 0.9 28.3 14.2 52.5 27.9 50.9 26.9 106.1-61 176.2-16.8 11.6-29.7 26.5-47.1 36.7q0 0 0 0c34.4-41.1 78.2-112.9 38.2-172.2-33-48.8-119.5-13.1-212.4-0.7z"/><path class="l" d="m369.7 315.2c-7.3 21.9 1.5 47.4-5.2 64.5-16.4 42.3-71.1 10.7-40.9-26.4 9.4-11.5 20.2-18.6 46.1-38.1z"/><path class="m" d="m366.5 47.6c2.9-5.7 9.8-8 15.5-5.1 5.6 2.9 7.9 9.8 5 15.5-2.8 5.6-9.8 7.9-15.4 5-5.7-2.9-8-9.8-5.1-15.4z"/><path class="n" d="m392.2 29.7c2-4 7-5.6 11-3.6 4 2.1 5.6 7 3.6 11-2.1 4-7 5.7-11 3.6-4-2-5.6-7-3.6-11z"/><path class="o" d="m26.2 112.4c-6.4 0-11.5-5.1-11.5-11.5 0-6.3 5.1-11.5 11.5-11.5 6.3 0 11.5 5.2 11.5 11.5 0 6.4-5.2 11.5-11.5 11.5z"/><path class="p" d="m26.2 23c-6.4 0-11.5-5.1-11.5-11.5 0-6.4 5.1-11.5 11.5-11.5 6.3 0 11.5 5.1 11.5 11.5 0 6.4-5.2 11.5-11.5 11.5z"/><path class="q" d="m14.7 70.9c-8.1 0-14.7-6.6-14.7-14.7 0-8.1 6.6-14.6 14.7-14.6 8.1 0 14.6 6.5 14.6 14.6 0 8.1-6.5 14.7-14.6 14.7z"/><path class="r" d="m42.3 139.3c-4.3 0-7.9-3.6-7.9-7.9 0-4.4 3.6-7.9 7.9-7.9 4.4 0 7.9 3.5 7.9 7.9 0 4.3-3.5 7.9-7.9 7.9z"/><path class="s" d="m60.3 160.1c-3.7 0-6.8-3.1-6.8-6.8 0-3.8 3.1-6.8 6.8-6.8 3.8 0 6.8 3 6.8 6.8 0 3.7-3 6.8-6.8 6.8z"/><path class="t" d="m84.9 176.3c-3.8 0-6.8-3-6.8-6.8 0-3.8 3-6.8 6.8-6.8 3.8 0 6.8 3 6.8 6.8 0 3.8-3 6.8-6.8 6.8z"/><path class="u" d="m117.5 183.1c-3.7 0-6.8-3-6.8-6.8 0-3.8 3.1-6.8 6.8-6.8 3.8 0 6.8 3 6.8 6.8 0 3.8-3 6.8-6.8 6.8z"/><path class="v" d="m191.5 491.3c-1.1 8.5-8.9 14.5-17.4 13.4-8.5-1.1-14.5-8.8-13.4-17.3 1.1-8.5 8.8-14.5 17.3-13.5 8.5 1.1 14.6 8.9 13.5 17.4z"/><path class="w" d="m202.1 453.9c-0.8 5.8-6.1 10-11.9 9.2-5.9-0.7-10-6.1-9.3-11.9 0.8-5.8 6.1-10 11.9-9.2 5.9 0.7 10 6.1 9.3 11.9z"/><path class="x" d="m177.9 531.4c-0.7 5.9-6 10-11.9 9.3-5.8-0.8-10-6.1-9.2-11.9 0.7-5.9 6.1-10 11.9-9.3 5.8 0.8 10 6.1 9.2 11.9z"/><path class="y" d="m220.2 427c-0.6 5-5.2 8.5-10.2 7.9-5.1-0.6-8.6-5.2-8-10.3 0.6-5 5.2-8.5 10.3-7.9 5 0.6 8.6 5.2 7.9 10.3z"/><path class="z" d="m418.7 23c2.1-4 6.9-5.6 10.9-3.5 4 2 5.5 6.8 3.5 10.8-2 4-6.8 5.6-10.8 3.5-4-2-5.6-6.8-3.6-10.8z"/></svg>